<svg width="32" height="32" viewBox="0 0 32 32" fill="none" xmlns="http://www.w3.org/2000/svg">
<path d="M26.5944 8.16616L8.31558 26.445C7.57572 27.1849 6.44417 27.1849 5.70431 26.445C4.96445 25.7052 4.96445 24.5736 5.70431 23.8338L23.9832 5.55489C24.723 4.81504 25.8546 4.81504 26.5944 5.55489C27.3343 6.29475 27.3343 7.4263 26.5944 8.16616Z" fill="black"/>
<path d="M23.8338 26.4451L14.6943 17.3057L5.55489 8.16624C4.81504 7.42638 4.81504 6.29483 5.55489 5.55497C6.29475 4.81511 7.4263 4.81511 8.16616 5.55497L26.445 23.8338C27.1849 24.5737 27.1849 25.7052 26.445 26.4451C25.7052 27.185 24.5736 27.185 23.8338 26.4451Z" fill="black"/>
</svg>
