<svg width="32" height="32" viewBox="0 0 32 32" fill="none" xmlns="http://www.w3.org/2000/svg">
<path d="M13 4C13 5.65685 11.6569 7 10 7C8.34315 7 7 5.65685 7 4C7 2.34315 8.34315 1 10 1C11.6569 1 13 2.34315 13 4Z" fill="black"/>
<path d="M25 4C25 5.65685 23.6569 7 22 7C20.3431 7 19 5.65685 19 4C19 2.34315 20.3431 1 22 1C23.6569 1 25 2.34315 25 4Z" fill="black"/>
<path d="M25 16C25 17.6569 23.6569 19 22 19C20.3431 19 19 17.6569 19 16C19 14.3431 20.3431 13 22 13C23.6569 13 25 14.3431 25 16Z" fill="black"/>
<path d="M25 28C25 29.6569 23.6569 31 22 31C20.3431 31 19 29.6569 19 28C19 26.3431 20.3431 25 22 25C23.6569 25 25 26.3431 25 28Z" fill="black"/>
<path d="M13 16C13 17.6569 11.6569 19 10 19C8.34315 19 7 17.6569 7 16C7 14.3431 8.34315 13 10 13C11.6569 13 13 14.3431 13 16Z" fill="black"/>
<path d="M13 28C13 29.6569 11.6569 31 10 31C8.34315 31 7 29.6569 7 28C7 26.3431 8.34315 25 10 25C11.6569 25 13 26.3431 13 28Z" fill="black"/>
</svg>
