<svg width="32" height="32" viewBox="0 0 32 32" fill="none" xmlns="http://www.w3.org/2000/svg">
<path d="M14.0833 13.3333C14.0833 12.9191 13.7475 12.5833 13.3333 12.5833C12.9191 12.5833 12.5833 12.9191 12.5833 13.3333H14.0833ZM12.5833 21.3333C12.5833 21.7475 12.9191 22.0833 13.3333 22.0833C13.7475 22.0833 14.0833 21.7475 14.0833 21.3333H12.5833ZM19.4167 13.3333C19.4167 12.9191 19.0809 12.5833 18.6667 12.5833C18.2524 12.5833 17.9167 12.9191 17.9167 13.3333H19.4167ZM17.9167 21.3333C17.9167 21.7475 18.2524 22.0833 18.6667 22.0833C19.0809 22.0833 19.4167 21.7475 19.4167 21.3333H17.9167ZM24.75 8C24.75 7.58579 24.4142 7.25 24 7.25C23.5858 7.25 23.25 7.58579 23.25 8H24.75ZM8.74999 8C8.74999 7.58579 8.41421 7.25 7.99999 7.25C7.58578 7.25 7.24999 7.58579 7.24999 8H8.74999ZM5.33333 7.25C4.91911 7.25 4.58333 7.58579 4.58333 8C4.58333 8.41421 4.91911 8.75 5.33333 8.75V7.25ZM26.6667 8.75C27.0809 8.75 27.4167 8.41421 27.4167 8C27.4167 7.58579 27.0809 7.25 26.6667 7.25V8.75ZM19.25 8C19.25 8.41421 19.5858 8.75 20 8.75C20.4142 8.75 20.75 8.41421 20.75 8H19.25ZM11.25 8C11.25 8.41421 11.5858 8.75 12 8.75C12.4142 8.75 12.75 8.41421 12.75 8H11.25ZM12.5833 13.3333V21.3333H14.0833V13.3333H12.5833ZM17.9167 13.3333V21.3333H19.4167V13.3333H17.9167ZM23.25 8V24H24.75V8H23.25ZM21.3333 25.9167H10.6667V27.4167H21.3333V25.9167ZM8.74999 24V8H7.24999V24H8.74999ZM10.6667 25.9167C9.60812 25.9167 8.74999 25.0585 8.74999 24H7.24999C7.24999 25.887 8.77969 27.4167 10.6667 27.4167V25.9167ZM23.25 24C23.25 25.0585 22.3919 25.9167 21.3333 25.9167V27.4167C23.2203 27.4167 24.75 25.887 24.75 24H23.25ZM5.33333 8.75H26.6667V7.25H5.33333V8.75ZM20.75 8V6.66667H19.25V8H20.75ZM17.3333 3.25H14.6667V4.75H17.3333V3.25ZM11.25 6.66667V8H12.75V6.66667H11.25ZM14.6667 3.25C12.7797 3.25 11.25 4.77969 11.25 6.66667H12.75C12.75 5.60812 13.6081 4.75 14.6667 4.75V3.25ZM20.75 6.66667C20.75 4.77969 19.2203 3.25 17.3333 3.25V4.75C18.3919 4.75 19.25 5.60812 19.25 6.66667H20.75Z" fill="black"/>
</svg>
