<svg width="114" height="38" viewBox="0 0 114 38" fill="none" xmlns="http://www.w3.org/2000/svg">
<path d="M18.9701 15.5731C18.6019 15.2026 18.1935 14.8742 17.7526 14.5939C16.585 13.8462 15.2276 13.4489 13.8411 13.4489C11.9166 13.4453 10.0704 14.2099 8.71197 15.5731L2.12187 22.1683C0.765779 23.527 0.00358087 25.3679 0.00236661 27.2876C-0.000183362 31.2935 3.24508 34.5429 7.25095 34.5455C9.17242 34.5522 11.017 33.7912 12.3749 32.4316L17.8147 26.9917C17.9137 26.8936 17.9688 26.7599 17.9681 26.6209C17.9664 26.3347 17.733 26.1041 17.447 26.1058H17.2397C16.1032 26.1098 14.9767 25.8915 13.924 25.4635C13.73 25.3835 13.5071 25.4286 13.3593 25.5773L9.4477 29.4941C8.23306 30.7087 6.26375 30.7087 5.04911 29.4941C3.83448 28.2794 3.83448 26.3102 5.04911 25.0956L11.6651 18.4848C12.8788 17.2726 14.8449 17.2726 16.0585 18.4848C16.8765 19.2544 18.1523 19.2544 18.9701 18.4848C19.3221 18.1326 19.5355 17.6653 19.5712 17.1688C19.609 16.5753 19.3902 15.9941 18.9701 15.5731Z" fill="#5699E8"/>
<path d="M28.9641 5.57908C26.1314 2.74637 21.5386 2.74637 18.7058 5.57908L13.2711 11.0086C13.1219 11.1586 13.0788 11.3841 13.1623 11.5786C13.2448 11.7735 13.4377 11.8986 13.6493 11.8946H13.841C14.9762 11.8925 16.1008 12.1125 17.1516 12.5422C17.3456 12.622 17.5684 12.577 17.7163 12.4282L21.6175 8.53219C22.8321 7.31756 24.8014 7.31756 26.016 8.53219C27.2306 9.74683 27.2306 11.7161 26.016 12.9308L21.1563 17.7852L21.1149 17.8318L19.4156 19.5208C18.202 20.733 16.2358 20.733 15.0222 19.5208C14.2042 18.7511 12.9284 18.7511 12.1105 19.5208C11.7564 19.8757 11.5429 20.3469 11.5095 20.8471C11.4716 21.4406 11.6905 22.0219 12.1105 22.4428C12.7102 23.0451 13.4118 23.5362 14.1829 23.8935C14.2917 23.9454 14.4005 23.9868 14.5093 24.0334C14.6181 24.0801 14.732 24.1162 14.8408 24.1576C14.9496 24.1993 15.0636 24.2354 15.1724 24.2665L15.4781 24.3494C15.6853 24.4012 15.8925 24.4426 16.1049 24.4789C16.3608 24.5169 16.6185 24.5411 16.8769 24.5515H17.2395H17.2706L17.5816 24.5152C17.6954 24.51 17.8146 24.4841 17.9493 24.4841H18.1255L18.483 24.4323L18.6488 24.4012L18.9492 24.339H19.0062C20.2789 24.0195 21.441 23.3605 22.3687 22.4324L28.9639 15.8372C31.7968 13.0045 31.7968 8.41179 28.9641 5.57908Z" fill="#0E78D9"/>
<path d="M36.7757 31.0909V8.47934H40.8718V27.6573H50.8307V31.0909H36.7757ZM54.2091 31.0909V14.1322H58.206V31.0909H54.2091ZM56.2186 11.7253C55.5855 11.7253 55.0409 11.5156 54.5846 11.096C54.1282 10.6691 53.9001 10.1575 53.9001 9.56134C53.9001 8.95778 54.1282 8.44621 54.5846 8.02668C55.0409 7.59976 55.5855 7.38631 56.2186 7.38631C56.8589 7.38631 57.4037 7.59976 57.8526 8.02668C58.3089 8.44621 58.5371 8.95778 58.5371 9.56134C58.5371 10.1575 58.3089 10.6691 57.8526 11.096C57.4037 11.5156 56.8589 11.7253 56.2186 11.7253ZM66.3126 21.1543V31.0909H62.3159V14.1322H66.1359V17.0139H66.3347C66.7247 16.0644 67.3467 15.3099 68.2007 14.7505C69.0617 14.1911 70.1254 13.9114 71.3915 13.9114C72.5617 13.9114 73.5811 14.1617 74.4498 14.6622C75.3257 15.1627 76.0028 15.8877 76.4812 16.8372C76.9669 17.7868 77.2062 18.9387 77.1989 20.293V31.0909H73.202V20.9112C73.202 19.7778 72.9077 18.8908 72.3188 18.2505C71.7373 17.6101 70.9313 17.2898 69.9008 17.2898C69.2016 17.2898 68.5796 17.4444 68.035 17.7536C67.4977 18.0554 67.0745 18.4934 66.7653 19.0675C66.4636 19.6415 66.3126 20.3371 66.3126 21.1543ZM84.9053 25.7692L84.8942 20.9444H85.5347L91.6292 14.1322H96.2994L88.8027 22.4791H87.9747L84.9053 25.7692ZM81.2618 31.0909V8.47934H85.2587V31.0909H81.2618ZM91.9052 31.0909L86.3849 23.3735L89.0787 20.558L96.6858 31.0909H91.9052ZM112.367 18.6148L108.723 19.0123C108.62 18.6442 108.44 18.2984 108.182 17.9744C107.932 17.6507 107.593 17.3893 107.166 17.1905C106.739 16.9918 106.217 16.8924 105.599 16.8924C104.767 16.8924 104.067 17.0728 103.501 17.4334C102.941 17.794 102.665 18.2614 102.673 18.8356C102.665 19.3287 102.846 19.73 103.214 20.0391C103.589 20.3481 104.207 20.6022 105.069 20.8009L107.961 21.4192C109.566 21.7652 110.758 22.3134 111.538 23.0643C112.326 23.8149 112.724 24.7976 112.731 26.0122C112.724 27.0795 112.411 28.0216 111.792 28.8386C111.182 29.6483 110.331 30.2812 109.242 30.7377C108.153 31.194 106.901 31.4222 105.488 31.4222C103.413 31.4222 101.742 30.9878 100.476 30.1193C99.2095 29.2434 98.4552 28.0252 98.2122 26.4648L102.11 26.0894C102.286 26.8549 102.662 27.4327 103.236 27.8229C103.81 28.2129 104.557 28.4079 105.477 28.4079C106.427 28.4079 107.189 28.2129 107.762 27.8229C108.344 27.4327 108.635 26.9506 108.635 26.3765C108.635 25.8906 108.447 25.4895 108.072 25.1731C107.704 24.8565 107.13 24.6136 106.349 24.4444L103.457 23.8371C101.83 23.4985 100.627 22.928 99.8464 22.1259C99.066 21.3161 98.6796 20.293 98.687 19.0565C98.6796 18.0113 98.9631 17.1059 99.5372 16.3404C100.119 15.5675 100.925 14.9713 101.955 14.5518C102.993 14.1249 104.189 13.9114 105.543 13.9114C107.531 13.9114 109.095 14.3347 110.236 15.1811C111.384 16.0276 112.094 17.1721 112.367 18.6148Z" fill="#0E78D9"/>
</svg>
