<?xml version="1.0" encoding="iso-8859-1"?>
<!-- Generator: Adobe Illustrator 18.0.0, SVG Export Plug-In . SVG Version: 6.00 Build 0)  -->
<!DOCTYPE svg PUBLIC "-//W3C//DTD SVG 1.1//EN" "http://www.w3.org/Graphics/SVG/1.1/DTD/svg11.dtd">
<svg version="1.1" id="Capa_1" xmlns="http://www.w3.org/2000/svg" xmlns:xlink="http://www.w3.org/1999/xlink" x="0px" y="0px"
	 viewBox="0 0 207.394 207.394" style="enable-background:new 0 0 207.394 207.394;" xml:space="preserve">
<path d="M197.517,1.768c-1.688-1.424-3.917-2.032-6.097-1.663l-117.473,20c-3.604,0.614-6.241,3.737-6.241,7.393v44.066v60.336
	H44.961c-20.814,0-37.746,16.933-37.746,37.746c0,20.813,16.933,37.746,37.746,37.746c20.812,0,37.745-16.933,37.745-37.746V77.897
	L185.179,60.45v51.451h-22.746c-20.814,0-37.747,16.933-37.747,37.746c0,20.813,16.933,37.746,37.747,37.746
	c20.813,0,37.746-16.933,37.746-37.746V51.566V7.499C200.179,5.29,199.205,3.193,197.517,1.768z M44.961,192.394
	c-12.543,0-22.746-10.204-22.746-22.746c0-12.543,10.204-22.746,22.746-22.746h22.745v22.746
	C67.706,182.19,57.503,192.394,44.961,192.394z M82.706,33.83l102.473-17.446v28.851L82.706,62.681V33.83z M162.433,172.394
	c-12.543,0-22.747-10.204-22.747-22.746c0-12.543,10.204-22.746,22.747-22.746h22.746v22.746
	C185.179,162.19,174.975,172.394,162.433,172.394z"/>
<g>
</g>
<g>
</g>
<g>
</g>
<g>
</g>
<g>
</g>
<g>
</g>
<g>
</g>
<g>
</g>
<g>
</g>
<g>
</g>
<g>
</g>
<g>
</g>
<g>
</g>
<g>
</g>
<g>
</g>
</svg>
